<svg width="91" height="78" viewBox="0 0 91 78" fill="none" xmlns="http://www.w3.org/2000/svg">
<mask id="mask0_2_35" style="mask-type:alpha" maskUnits="userSpaceOnUse" x="4" y="4" width="83" height="70">
<path d="M4.73682 73.1083C4.73682 73.6008 5.21038 74 5.79456 74H28.309C28.8931 74 29.3667 73.6008 29.3667 73.1083V47.2447C29.3667 46.7522 29.8403 46.3529 30.4244 46.3529H60.7597C61.3439 46.3529 61.8175 46.7522 61.8175 47.2447V73.1083C61.8175 73.6008 62.291 74 62.8752 74H85.3896C85.9738 74 86.4473 73.6008 86.4473 73.1083V4.89172C86.4473 4.39924 85.9738 4 85.3896 4H62.8752C62.291 4 61.8175 4.39924 61.8175 4.89172V29.873C61.8175 30.3655 61.3439 30.7647 60.7597 30.7647H30.4244C29.8403 30.7647 29.3667 30.3655 29.3667 29.873V4.89172C29.3667 4.39924 28.8931 4 28.309 4H5.79456C5.21038 4 4.73682 4.39924 4.73682 4.89172V73.1083Z" fill="url(#paint0_radial_2_35)"/>
</mask>
<g mask="url(#mask0_2_35)">
<g style="mix-blend-mode:multiply">
<ellipse cx="13.7275" cy="66.197" rx="85.1482" ry="71.7834" fill="url(#paint1_linear_2_35)"/>
</g>
<g style="mix-blend-mode:multiply">
<ellipse cx="51.013" cy="26.9616" rx="69.0176" ry="58.1847" fill="url(#paint2_linear_2_35)"/>
</g>
<g style="mix-blend-mode:multiply">
<ellipse cx="82.7453" cy="43.4586" rx="57.6469" ry="48.5987" fill="url(#paint3_linear_2_35)"/>
</g>
<g style="mix-blend-mode:multiply">
<ellipse cx="86.4474" cy="66.1976" rx="46.5406" ry="39.2357" fill="url(#paint4_linear_2_35)"/>
</g>
<g style="mix-blend-mode:multiply">
<ellipse cx="3.19529" cy="66.2432" rx="34.4216" ry="29.0371" fill="url(#paint5_linear_2_35)"/>
</g>
</g>
<defs>
<radialGradient id="paint0_radial_2_35" cx="0" cy="0" r="1" gradientUnits="userSpaceOnUse" gradientTransform="translate(45.5921 39) rotate(90) scale(32.8538 38.35)">
<stop stop-color="white"/>
<stop offset="1" stop-color="#F2F3F4"/>
</radialGradient>
<linearGradient id="paint1_linear_2_35" x1="13.7275" y1="-5.58643" x2="13.7275" y2="137.98" gradientUnits="userSpaceOnUse">
<stop stop-color="#D5B0F2"/>
<stop offset="1" stop-color="#D5B0F2" stop-opacity="0"/>
</linearGradient>
<linearGradient id="paint2_linear_2_35" x1="51.013" y1="-31.2231" x2="51.013" y2="85.1463" gradientUnits="userSpaceOnUse">
<stop stop-color="#1DDEBB"/>
<stop offset="1" stop-color="#1DDEBB" stop-opacity="0"/>
</linearGradient>
<linearGradient id="paint3_linear_2_35" x1="82.7453" y1="-5.14014" x2="82.7453" y2="92.0573" gradientUnits="userSpaceOnUse">
<stop stop-color="#D5B0F2"/>
<stop offset="1" stop-color="#D5B0F2" stop-opacity="0"/>
</linearGradient>
<linearGradient id="paint4_linear_2_35" x1="86.4474" y1="26.9619" x2="86.4474" y2="105.433" gradientUnits="userSpaceOnUse">
<stop stop-color="#D5B0F2"/>
<stop offset="1" stop-color="#D5B0F2" stop-opacity="0"/>
</linearGradient>
<linearGradient id="paint5_linear_2_35" x1="3.19529" y1="37.2061" x2="3.19529" y2="95.2803" gradientUnits="userSpaceOnUse">
<stop stop-color="#AB61E5"/>
<stop offset="1" stop-color="#AB61E5" stop-opacity="0"/>
</linearGradient>
</defs>
</svg>
